# xmcd CD database file
#
# Track frame offsets:
#	150
#	20709
#	35975
#	55117
#	73587
#	105026
#	136350
#	148029
#	174515
#	185741
#	205080
#	228023
#	255253
#
# Disc length: 3816 seconds
#
# Revision: 1
# Processed by: cddbd v1.5.2PL0 Copyright (c) Steve Scherf et al.
# Submitted via: CDex 1.51
#
DISCID=b10ee60d
DTITLE=Chet Baker - I'll remember you
DYEAR=2013
DGENRE=Jazz
TTITLE0=Angel Eyes
TTITLE1=Easy living
TTITLE2=I've grown accustomed to her face
TTITLE3=Born to be blue
TTITLE4=Fair weather
TTITLE5=Chabootie
TTITLE6=There is no greater love
TTITLE7=Solar
TTITLE8=Street of dreams
TTITLE9=The best thing for you
TTITLE10=I'm old fashioned
TTITLE11=Chekeetah
TTITLE12=Along together
EXTD=YEAR: 2013
EXTT0=
EXTT1=
EXTT2=
EXTT3=
EXTT4=
EXTT5=
EXTT6=
EXTT7=
EXTT8=
EXTT9=
EXTT10=
EXTT11=
EXTT12=
PLAYORDER=
